<?xml version="1.0" encoding="UTF-8"?>
<!-- Generated by Pixelmator Pro 2.4.5 -->
<svg width="2500" height="2500" viewBox="0 0 2500 2500" xmlns="http://www.w3.org/2000/svg" xmlns:xlink="http://www.w3.org/1999/xlink">
    <g id="Group-copy">
        <g id="TWO"/>
        <g id="ONE00000096753812397756335920000014003167500001302171">
            <path id="Path" fill="#f6c9ac" stroke="none" d="M 2303.241211 1854.362793 L 1256.296143 2458.820068 L 209.351196 1854.362793 L 209.351196 645.448608 L 1256.296143 41 L 2303.241211 645.448608 Z"/>
            <g id="vase00000101801671815751677530000011039472856487550361">
                <path id="path1" fill="#000000" stroke="none" d="M 1441.439575 1461.883423 C 1441.439575 1461.883423 1532.801514 1490.655151 1530.622681 1580.802734 C 1528.44397 1670.950195 1498.104858 1699.722046 1498.104858 1699.722046 L 1804.940674 1699.722046 C 1804.940674 1699.722046 1761.873413 1679.880615 1770.106201 1589.113037 C 1774.997681 1535.238037 1850.737793 1461.883423 1850.737793 1461.883423 L 1441.439575 1461.883423 Z"/>
                <path id="path2" fill="#000000" stroke="none" d="M 1491.645996 1729.329102 L 1819.460083 1731.464844 C 1819.460083 1731.464844 1972.662598 1793.176636 1984.925659 2016.547485 C 1986.320923 2041.900391 1987.0271 2043.028564 1987.009888 2065.94458 C 1791.084351 2105.997559 1563.209473 2276.819824 1406.45874 2385.921631 C 1358.310669 2285.267822 1330.236328 2175.098145 1344.850586 2008.848633 C 1365.759766 1770.846191 1491.645996 1729.329102 1491.645996 1729.329102 Z"/>
                <path id="path3" fill="#000000" stroke="none" d="M 1799.653076 1609.540039 L 1814.46521 1650.394043 C 1814.46521 1650.394043 1988.344482 1527.823364 1974.824219 1699.730713 C 1972.301025 1731.749146 1948.833984 1789.593994 1948.833984 1789.593994 L 1982.15271 1848.179688 C 1982.15271 1848.179688 2021.861572 1779.707764 2022.240356 1688.104858 C 2022.800049 1549.361328 1932.290894 1510.264038 1799.653076 1609.540039 Z"/>
                <path id="path4" fill="#000000" stroke="none" d="M 1852.494629 1439.2948 L 1439.700073 1439.2948 C 1425.878296 1439.2948 1414.5625 1427.987671 1414.5625 1414.157227 L 1414.5625 1412.641479 C 1414.5625 1398.819702 1425.869629 1387.503906 1439.700073 1387.503906 L 1852.494629 1387.503906 C 1866.316406 1387.503906 1877.632202 1398.811157 1877.632202 1412.641479 L 1877.632202 1414.157227 C 1877.623657 1427.979004 1866.316406 1439.2948 1852.494629 1439.2948 Z"/>
                <path id="path5" fill="#f6c9ac" stroke="none" d="M 1392.619751 2088.860107 L 1420.668091 2088.860107 L 1420.668091 2001.011963 L 1474.017822 2001.011963 L 1474.017822 2028.604004 L 1447.338745 2028.604004 L 1447.338745 2061.268066 L 1502.746582 2061.268066 L 1502.746582 1971.973145 L 1392.619751 1971.973145 Z"/>
                <path id="path6" fill="#f6c9ac" stroke="none" d="M 1535.961914 2088.860107 L 1564.001831 2088.860107 L 1564.001831 2001.011963 L 1617.359985 2001.011963 L 1617.359985 2028.604004 L 1590.680908 2028.604004 L 1590.680908 2061.268066 L 1646.088745 2061.268066 L 1646.088745 1971.973145 L 1535.961914 1971.973145 Z"/>
                <path id="path7" fill="#f6c9ac" stroke="none" d="M 1675.127563 2088.860107 L 1703.175903 2088.860107 L 1703.175903 2001.011963 L 1756.534058 2001.011963 L 1756.534058 2028.604004 L 1729.85498 2028.604004 L 1729.85498 2061.268066 L 1785.262817 2061.268066 L 1785.262817 1971.973145 L 1675.127563 1971.973145 Z"/>
                <path id="path8" fill="#f6c9ac" stroke="none" d="M 1814.46521 2088.860107 L 1842.513672 2088.860107 L 1842.513672 2001.011963 L 1895.871948 2001.011963 L 1895.871948 2028.604004 L 1869.192749 2028.604004 L 1869.192749 2061.268066 L 1924.600586 2061.268066 L 1924.600586 1971.973145 L 1814.46521 1971.973145 Z"/>
                <path id="path9" fill="#f6c9ac" stroke="none" d="M 1341.836426 1907.178589 L 1986.984009 1907.178589 L 1986.984009 1947.231689 L 1341.836426 1947.231689 Z"/>
                <path id="path10" fill="#f6c9ac" stroke="none" d="M 1895.49292 2123.143555 L 1321.951904 2129.120117 L 1327.463379 2088.860107 L 1956.928955 2088.860107 Z"/>
                <path id="path11" fill="#000000" stroke="none" d="M 1441.439575 1461.883423 C 1441.439575 1461.883423 1532.801514 1490.655151 1530.622681 1580.802734 C 1528.44397 1670.950195 1498.104858 1699.722046 1498.104858 1699.722046 L 1804.940674 1699.722046 C 1804.940674 1699.722046 1761.873413 1679.880615 1770.106201 1589.113037 C 1774.997681 1535.238037 1850.737793 1461.883423 1850.737793 1461.883423 L 1441.439575 1461.883423 Z"/>
                <path id="path12" fill="#000000" stroke="none" d="M 1496.666626 1599.998291 L 1481.010498 1650.092651 C 1481.010498 1650.092651 1299.725098 1540.861572 1333.224731 1710.013184 C 1339.468262 1741.523438 1369.531738 1796.225098 1369.531738 1796.225098 L 1343.283203 1858.29834 C 1343.283203 1858.29834 1295.849854 1794.924561 1284.783691 1704.002075 C 1268.025269 1566.27478 1353.350342 1516.87793 1496.666626 1599.998291 Z"/>
            </g>
            <path id="path13" fill="#ffffff" stroke="none" d="M 1580.94104 1286.729492 C 1665.215454 1291.646729 1634.859131 1419.530884 1661.822388 1345.814575 C 1688.785767 1272.098145 1809.547974 1202.842651 1809.547974 1202.842651 C 1809.547974 1202.842651 2059.890869 1207.759888 2009.098877 1012.445923 C 2009.098877 1012.445923 2112.129395 942.690918 2024.712036 755.928345 C 1937.294434 569.165894 1816.333984 603.569702 1816.333984 603.569702 C 1816.333984 603.569702 1955.59436 591.513306 1952.571655 482.041138 C 1949.548828 372.568848 1628.357178 248.981934 1447.674561 155.596436 C 1266.991943 62.210693 1234.16394 71.339111 1234.16394 71.339111 L 209.351196 646.817749 C 209.351196 646.817749 138.502518 967.768311 315.43045 1120.462769 C 414.551453 1206.011719 435.79657 1134.362183 538.999512 1237.57373 C 589.602051 1288.176147 843.716858 1427.169434 937.102417 1264.984863 C 1030.488037 1102.800171 1104.204346 1154.022827 1104.204346 1154.022827 C 1104.204346 1154.022827 1209.207275 1271.977539 1358.207397 1198.252563 C 1507.207397 1124.527588 1501.549561 1227.739136 1501.549561 1227.739136 C 1501.549561 1227.739136 1496.675293 1281.812134 1580.94104 1286.729492 Z"/>
            <g id="Group">
                <path id="path14" fill="#000000" stroke="none" d="M 1075.355103 546.370728 C 1074.752319 551.16748 1070.55835 556.575439 1065.753052 557.772583 L 1063.953125 557.772583 C 1063.350342 558.375366 1062.756104 558.375366 1061.550415 558.375366 C 1047.74585 557.178467 1036.946777 562.578003 1026.147705 570.37146 C 1018.34552 575.168213 1010.543274 581.170654 1003.343811 587.172974 C 997.944336 591.37561 994.938843 593.769409 991.339111 596.172119 C 980.539978 604.568604 970.335144 614.170776 960.733032 623.772827 L 946.928467 636.371826 C 942.131714 641.168457 937.326355 645.371094 933.132446 650.167847 C 927.130066 656.170166 921.73053 661.569824 912.731262 668.769043 C 904.334839 675.968628 897.729675 683.770874 891.727234 690.970093 C 886.327698 696.972534 880.928162 702.966187 874.322998 708.968506 C 870.120422 712.568359 865.926514 717.968018 860.518372 725.167236 C 851.519104 738.369141 843.122681 748.573975 834.71759 757.573364 C 826.915405 764.772583 822.118652 774.374756 816.116272 783.374023 L 806.514221 797.781372 C 800.511841 806.177856 795.112244 813.980103 791.512573 822.97937 C 790.909729 825.38208 789.109924 827.181885 786.71582 829.575806 L 783.718994 833.175537 C 783.11615 833.778442 782.521912 834.975464 781.919128 836.172607 C 779.516418 839.169434 777.716553 841.572021 777.122375 844.56897 C 775.32251 851.165527 771.722839 856.565063 768.123169 861.370361 C 767.520325 862.567383 766.926086 863.170166 765.720459 864.36731 C 760.320923 872.763794 756.118408 881.771606 751.915894 892.570679 C 747.713318 902.172729 742.313782 911.172119 736.320068 920.171265 C 731.523315 926.173584 729.72345 930.970459 729.72345 935.775757 C 725.520935 939.978271 722.524048 946.574829 718.924316 952.577271 C 717.124451 956.17688 716.521667 957.976807 714.721802 960.379395 L 700.925842 985.585938 C 700.925842 986.188843 700.322998 986.188843 700.322998 986.782959 L 700.322998 987.97998 C 699.125977 988.582764 698.523132 988.582764 697.920349 993.982422 C 697.920349 998.184937 696.723267 1001.181763 694.320618 1002.981689 C 691.323792 1005.384277 689.523865 1008.984009 687.723999 1012.583618 L 685.924194 1015.580688 C 684.727173 1017.983276 684.124329 1020.980103 682.927307 1023.977051 L 681.127441 1032.373535 C 679.93042 1034.17334 678.724792 1036.57605 677.527771 1038.969971 C 675.727905 1041.967041 673.92804 1044.369629 673.325256 1047.375122 C 669.122681 1059.973999 656.523743 1063.57373 646.318848 1055.177368 C 639.72229 1049.777832 638.516663 1046.177979 642.116333 1041.381348 L 645.11322 1027.57666 C 648.110046 1014.375 651.115601 1001.173096 651.709839 987.377197 C 652.312622 986.774292 652.312622 986.180176 652.312622 985.577271 L 653.509644 983.174683 C 658.306396 974.175415 660.106262 966.975952 660.106262 959.776611 C 660.106262 956.17688 661.303223 952.577271 662.508911 948.977417 C 664.308716 944.774902 665.505798 940.581055 664.91156 935.775757 C 667.908508 932.778809 669.114075 929.773315 669.114075 921.971069 C 669.114075 917.174438 669.114075 914.771729 670.311157 911.774902 C 673.307983 903.378418 675.107849 894.973389 676.907715 886.568359 C 678.104736 881.771606 678.707581 880.565918 679.904602 878.766113 C 682.307251 875.769287 682.901489 871.56665 683.504333 867.364258 C 684.107117 860.767578 685.304138 857.761963 688.301025 854.162354 C 687.104004 851.165527 687.104004 847.565918 688.301025 842.157715 C 688.903809 839.755005 689.498047 837.955078 689.498047 835.561035 C 689.498047 834.364014 689.498047 833.158447 690.100891 831.961304 C 690.100891 827.164673 690.703674 822.359375 692.503601 817.5625 C 694.90625 810.966064 694.90625 803.163696 694.90625 794.758667 C 694.90625 789.359131 694.303406 783.959595 697.308899 779.154297 C 697.911682 777.35437 697.911682 775.554443 697.308899 774.357544 C 696.111877 771.360718 694.90625 768.355225 697.308899 763.558472 C 699.108765 761.155762 699.108765 758.158813 697.911682 752.759277 C 697.308899 749.762451 697.308899 747.962524 697.308899 745.559937 C 697.308899 743.157227 697.911682 740.763184 699.108765 737.163574 C 700.908569 733.563721 700.908569 731.161011 700.908569 729.361328 C 700.305786 725.158691 700.305786 722.764526 701.511414 720.361816 C 702.708435 719.164917 702.708435 717.36499 702.114258 714.359741 C 702.114258 713.756714 701.511414 713.162598 701.511414 712.559814 C 700.908569 710.157104 700.314392 708.357178 699.711609 704.757568 C 699.108765 702.354858 698.514526 699.960693 697.308899 697.557983 C 696.706116 695.758301 697.308899 693.958374 698.50592 692.158447 L 698.50592 690.358765 C 701.502808 685.56189 699.702942 680.162354 698.50592 674.762817 C 696.706116 665.160767 693.709167 657.358521 691.306519 651.356201 C 691.306519 650.159302 690.703674 649.556519 690.109497 648.953491 C 688.309692 644.751099 687.706848 642.951172 688.309692 639.954224 C 688.309692 633.951904 685.906982 629.155151 681.713074 626.149658 C 678.716187 623.746948 677.510498 621.947266 676.916321 618.347412 C 674.513672 609.950928 668.51123 606.351318 658.315002 606.351318 C 645.716064 606.351318 633.108459 608.754028 620.509521 613.550781 L 616.306946 615.350464 C 614.507141 616.547607 613.31012 617.150391 611.510254 617.753174 C 604.310852 618.355957 597.705688 622.550049 591.703308 627.949585 C 589.903442 630.352295 586.906555 632.746338 584.503845 634.554688 C 583.306824 635.751587 582.704041 635.751587 582.704041 636.354614 L 580.301331 638.154297 C 579.104309 638.757324 579.698547 638.757324 579.698547 638.757324 L 577.898682 640.557007 C 565.299744 653.156128 558.091736 664.557983 553.897827 681.359497 C 551.495117 691.555664 551.495117 703.560547 552.700745 717.36499 C 550.298096 716.762207 555.697632 735.966431 558.703125 737.766357 C 562.90564 747.368286 568.899414 754.567871 582.101196 768.372314 C 586.303711 770.172119 591.100464 772.574829 592.306091 772.574829 C 598.308472 773.771851 604.302246 777.974487 609.710388 781.574097 C 612.707275 783.374023 615.109985 786.37085 615.109985 789.979126 L 615.712769 791.17627 C 616.315613 793.578857 618.115479 800.175537 607.316345 802.578247 C 599.514099 803.18103 590.514893 800.175537 583.31543 797.178589 C 576.718872 794.181763 572.516357 790.582031 567.710999 787.576416 C 564.714111 785.173828 561.708618 782.779907 557.514709 780.377197 C 553.915039 778.577271 545.518616 767.175293 544.915771 764.772583 C 543.115906 761.775757 541.31604 759.373047 538.319153 756.376099 C 534.116638 752.173706 529.922729 747.376953 529.319946 738.971924 C 529.319946 738.369141 528.717102 737.774902 527.520081 736.569214 C 526.917236 735.372192 525.720215 734.166748 525.117432 733.572266 C 523.92041 732.969482 524.514587 729.369873 525.117432 723.375977 L 525.117432 720.973511 C 523.317566 719.173584 523.317566 715.573853 523.317566 710.174316 C 523.317566 707.17749 523.317566 703.577759 522.714722 700.572144 C 521.5177 692.77002 523.317566 685.570557 525.117432 678.965454 C 526.314453 675.968628 526.917236 672.963135 527.520081 669.966187 C 532.316833 657.961304 544.924377 640.565674 556.326294 628.560913 C 557.523315 626.158203 559.323181 624.358276 562.328674 622.558594 C 576.13324 608.754028 587.535217 602.157471 601.331177 595.552124 C 614.532959 590.152588 626.53772 586.552979 637.336853 584.753174 C 640.936523 584.150269 643.339172 583.55603 646.938904 582.350464 C 651.141418 581.15332 655.335327 581.747559 660.74353 582.953247 C 663.146179 584.150269 665.540283 584.753174 667.942932 584.753174 C 669.742737 585.355957 672.145447 585.355957 673.945251 585.950195 C 676.9422 585.950195 679.947632 586.552979 680.54187 587.750122 L 687.741272 593.752441 C 697.343384 601.554443 707.548218 609.356812 709.942322 623.755615 C 710.545105 627.355225 712.344971 630.352295 714.739014 633.951904 C 722.54126 645.353882 725.538147 657.952881 725.538147 674.75415 C 725.538147 680.153809 725.538147 684.356323 727.940796 688.550171 C 730.343506 692.150024 730.937744 695.146851 730.343506 702.354858 L 730.343506 705.351685 C 729.146484 711.354004 729.146484 717.347778 729.146484 722.756104 C 728.54364 725.753052 728.54364 728.758301 728.54364 731.755371 C 728.54364 735.35498 728.54364 739.557495 727.940796 743.76001 C 727.940796 749.762451 727.337952 755.756104 727.940796 761.758545 C 728.54364 765.961182 727.337952 770.757813 726.140991 774.357544 C 724.943909 778.559937 724.341125 782.754028 724.341125 786.956421 C 724.943909 794.758667 725.538147 804.955078 720.13855 813.359985 L 720.13855 818.156738 C 721.335632 830.161499 718.941528 842.760498 713.533386 857.761963 C 712.930542 859.56189 712.336365 861.361816 712.336365 864.358765 C 712.336365 870.9552 711.733521 873.960693 708.736633 876.363403 C 708.736633 876.363403 708.736633 877.560425 708.13385 877.560425 C 711.130737 881.762939 711.130737 885.362671 708.13385 891.959229 C 707.531006 892.562012 706.936768 893.759033 706.936768 894.361938 C 705.739807 897.358765 704.534119 900.958496 703.939941 903.964111 C 701.537292 911.766235 699.143188 918.965576 696.137695 926.165039 C 694.940674 928.567749 695.534851 930.961792 695.534851 933.967285 L 695.534851 939.969604 C 697.937561 930.367554 700.331604 926.173584 705.739807 921.971069 C 706.936768 921.368286 708.142456 919.568481 708.142456 918.37146 C 708.7453 907.572266 714.739014 899.167236 720.741394 890.770874 C 723.738281 886.568359 725.538147 883.571411 727.337952 880.565918 C 727.940796 878.163208 729.740662 875.769287 730.937744 873.366577 C 734.537415 867.967041 737.542908 862.567383 738.137085 855.96228 C 738.739929 853.55957 739.936951 852.362549 742.933838 849.365601 C 744.130859 848.168579 745.336487 847.565918 745.930725 846.368652 L 753.130127 831.969971 C 759.132507 821.170776 764.532043 810.363159 772.937073 800.769653 C 774.736938 791.167725 780.739319 784.570923 786.733093 778.568604 C 790.935608 773.763306 792.735413 771.369263 795.138123 767.769409 C 798.737854 762.369995 802.940369 756.970459 807.134277 751.570801 L 815.530701 740.771851 C 823.93573 728.76709 833.537781 718.570801 844.336914 707.168823 C 853.336121 698.772461 860.535583 688.567383 867.743591 678.362671 C 869.543457 675.365601 871.946106 672.963135 873.745972 670.560425 L 876.742859 667.563477 C 880.945374 663.963867 885.147888 659.76123 889.341797 655.567383 C 896.541199 647.765137 903.740601 640.565674 913.945496 634.563354 L 916.942383 631.566406 C 917.545166 630.963623 917.545166 630.963623 917.545166 630.369263 C 931.944031 612.965088 927.147278 617.167725 943.948792 601.56311 C 949.348328 598.566284 954.153625 593.761108 958.950378 588.964233 C 963.152893 584.761597 967.346802 580.567871 972.746399 577.562378 L 985.345337 568.56311 C 990.744873 564.360474 995.550232 560.166748 1001.544006 556.566895 C 1018.34552 546.362061 1035.146973 539.162598 1053.154053 533.763062 C 1056.753784 532.56604 1061.550415 532.56604 1066.950073 534.365723 C 1071.746826 536.174316 1075.355103 540.979736 1075.355103 546.370728 Z"/>
                <path id="path15" fill="#000000" stroke="none" d="M 982.34845 903.404297 C 981.745667 904.00708 981.151428 905.204102 980.548645 907.003906 C 979.351563 910.000732 978.748718 911.800659 976.948914 913.006348 C 972.746399 919.008667 969.146667 922.608398 965.546997 926.20813 C 962.55011 929.204956 960.750244 931.004761 958.347534 934.604492 C 949.951111 943.60376 942.743103 949.003296 933.743896 953.205811 C 929.541382 955.005615 925.347473 956.202759 922.944763 959.80249 C 904.343445 971.204346 892.941528 971.798584 876.140015 973.598511 L 871.9375 973.598511 C 853.336121 974.795532 833.537781 966.399048 823.332947 952.594482 C 818.536194 956.194092 813.730835 958.596802 809.52832 960.396606 C 804.128784 962.799316 802.931763 963.393433 801.131836 964.599121 C 796.929321 967.596069 793.932495 969.998779 788.532898 969.998779 C 775.331177 969.998779 769.93158 960.396606 779.533691 950.794556 C 788.532898 948.391968 798.737854 943.595093 804.740173 936.98999 C 807.142883 936.98999 810.139771 935.190063 813.136597 932.787476 C 812.533813 927.990723 811.939636 923.788208 813.136597 919.585693 L 814.936462 907.580933 C 815.539307 899.778687 816.133545 891.382202 819.741821 883.580078 C 820.938843 881.177368 822.14447 878.783325 822.738708 876.380615 L 825.735596 867.975586 C 829.93811 858.97644 835.337646 852.379639 841.934204 846.377319 C 850.933472 837.980957 860.535583 834.372681 870.740479 834.975464 C 876.140015 834.975464 880.34259 836.775391 884.545105 840.977783 C 891.141663 846.980225 892.941528 852.982544 892.34729 863.178833 C 891.744507 866.778564 889.944641 870.981079 888.74762 874.580688 C 888.144775 876.983398 887.550598 878.180542 886.947754 879.980347 C 881.548157 897.384644 871.946106 912.38623 861.146973 920.782715 C 859.950012 921.38562 858.150146 923.185425 855.144653 926.785156 C 850.942139 931.581787 849.142212 933.984497 846.145386 935.181519 L 843.742737 936.981445 C 841.942871 938.78125 841.942871 939.384033 842.545654 940.581055 C 844.948364 944.783569 846.145386 945.980591 850.3479 947.177612 L 855.144653 948.977417 C 871.946106 956.779785 877.948486 954.979858 890.547424 948.977417 C 892.34729 948.374634 895.344177 947.780396 897.746826 946.574829 C 901.949341 944.774902 904.343445 944.172119 907.348938 942.975098 C 909.148743 942.372314 910.345825 942.372314 912.145691 941.175293 C 917.545166 936.972778 922.350525 933.373047 927.147278 930.376099 C 934.949524 925.579468 941.546143 921.376953 948.745483 912.377563 L 957.744751 900.975708 C 959.544617 898.57312 963.747131 894.37915 966.744019 891.97644 C 970.946533 888.979614 976.346069 889.57373 980.548645 893.173584 C 983.554077 895.602051 983.554077 899.201782 982.34845 903.404297 Z M 838.937378 912.403442 C 843.139893 911.800659 845.533936 907.003906 846.739563 905.204102 C 852.741943 901.60437 854.541809 896.204834 857.538696 886.602783 C 858.735718 883.003052 860.535583 880.006226 862.335388 877.603516 C 864.738098 873.401001 866.537964 870.404175 866.537964 866.201538 L 866.537964 863.204712 C 866.537964 859.002197 866.537964 856.005249 863.541077 856.608154 C 862.344055 856.005249 861.741211 857.210938 859.941406 859.010742 C 858.744324 859.613647 858.744324 860.207764 857.538696 860.810547 C 854.541809 863.213257 853.336121 866.812988 850.942139 871.006958 C 850.339294 872.203857 850.339294 872.806763 849.745056 873.409668 C 846.74823 877.612061 845.542542 886.008545 841.942871 893.810791 C 839.540222 899.201782 838.937378 909.406616 838.937378 912.403442 Z"/>
                <path id="path16" fill="#000000" stroke="none" d="M 1116.768921 903.404297 L 1114.968994 907.003906 C 1113.169189 911.206421 1111.972168 913.600586 1108.966675 916.003174 C 1106.563965 918.405884 1102.964355 922.608398 1099.364624 926.802246 C 1094.567871 931.598999 1092.165161 934.604492 1089.159668 936.998657 C 1080.763306 944.800781 1074.760986 948.400513 1066.958618 952.603027 L 1057.356567 958.002686 C 1047.160278 964.599121 1040.555176 966.399048 1028.550415 969.998779 C 1003.946655 976.595337 990.150696 969.395996 982.34845 965.202026 C 979.945801 964.005005 978.748718 962.799316 977.543152 962.799316 C 975.140442 962.196533 972.746399 960.396606 971.54071 958.596802 C 970.937927 957.994019 970.937927 957.39978 970.937927 957.39978 C 963.135681 954.99707 958.338989 940.598267 958.941772 927.396484 C 958.941772 908.192383 960.741638 895.593384 965.538391 881.797363 C 966.141235 879.394775 967.338196 877.000732 968.535217 874.598022 C 969.7323 872.195313 970.335144 870.395508 970.937927 868.595581 C 970.937927 864.393066 970.937927 861.999146 972.134949 859.596436 C 976.337463 854.196899 977.534485 849.400024 979.334351 843.397705 C 979.937134 840.400879 980.531372 836.801147 982.331238 832.598511 C 982.934082 830.195923 984.131042 831.401611 979.334351 831.995728 C 977.534485 831.995728 976.337463 831.995728 975.131836 831.393066 C 973.934814 831.393066 973.33197 830.790283 966.735413 831.995728 L 960.733032 831.995728 C 957.133301 831.995728 953.53363 832.598511 949.93396 831.995728 C 945.731384 830.798706 942.734497 827.793213 942.734497 823.599365 C 942.131714 820.602539 943.337341 819.396851 946.937012 817.597046 C 947.539856 817.597046 948.134033 817.597046 948.134033 816.994263 C 953.53363 814.591553 961.335876 813.394531 967.338196 813.997314 C 973.934814 814.600098 975.140442 814.600098 977.534485 813.394531 C 979.334351 813.394531 981.737061 812.197388 987.73938 812.197388 C 988.936401 812.197388 990.736328 809.794678 992.536133 805.600952 C 994.335999 804.403809 996.135803 799.00415 995.53302 797.798706 C 994.930237 793.596069 995.53302 791.193359 998.529907 786.999512 C 1000.932556 784.596802 1000.932556 783.399902 1000.329712 780.997192 L 1009.328979 759.398926 C 1012.928711 752.199585 1020.730896 750.399658 1027.930298 756.401978 C 1028.533081 756.401978 1028.533081 757.004761 1029.730225 758.201904 C 1032.132935 761.198853 1033.329834 762.404419 1033.329834 765.401245 L 1033.329834 770.197998 C 1033.329834 774.400513 1033.329834 776.200317 1032.727051 778.603027 C 1030.324341 784.002686 1029.127319 787.602295 1028.524536 791.202026 C 1027.921753 795.404541 1026.724731 799.00415 1023.125 806.203735 C 1023.125 806.806519 1022.522156 807.400635 1021.927979 808.00354 L 1020.730896 810.406128 C 1024.330566 811.603271 1026.733276 811.009033 1030.333008 809.803345 C 1047.134521 805.006714 1059.733398 806.203735 1075.932129 806.806519 C 1078.334839 806.806519 1082.528687 808.00354 1083.13147 809.803345 L 1083.734253 809.803345 C 1084.931274 811.603271 1086.136963 812.800171 1086.136963 814.005859 C 1086.136963 816.408569 1084.337158 820.008301 1081.934448 821.205322 C 1079.531738 823.005249 1075.932129 823.608032 1072.935303 823.608032 C 1069.938354 823.608032 1066.932739 824.210693 1064.538818 824.210693 C 1059.742065 824.813599 1055.539551 825.407959 1049.537109 825.407959 C 1048.340088 825.407959 1047.737305 825.407959 1046.540283 826.01062 L 1044.163452 826.01062 C 1039.366699 826.01062 1035.766968 826.01062 1032.167358 826.613403 C 1028.567627 826.613403 1024.365112 827.216187 1019.568359 827.216187 C 1014.771606 827.819092 1014.168762 827.819092 1013.565979 833.218628 C 1011.766113 838.618164 1009.363464 842.217896 1007.563599 844.620605 C 1004.566711 849.417236 1003.361084 851.819946 1003.361084 858.416504 C 1003.361084 859.613647 1002.164001 862.016235 1000.364197 865.615967 C 998.564331 868.018677 998.564331 868.018677 998.564331 868.612915 C 982.9599 901.018799 982.365662 913.617798 984.759766 936.412964 C 984.759766 938.815674 985.362549 940.012695 988.96228 943.009644 C 998.564331 953.808594 1008.76062 955.608521 1023.16803 950.208984 C 1035.164185 946.00647 1044.766235 943.612427 1053.171387 934.604492 C 1057.373779 930.401978 1060.370605 929.204956 1063.367676 928.007935 C 1065.16748 927.405151 1066.967285 926.810913 1069.369995 925.605225 C 1074.769531 922.005615 1078.972046 918.405884 1082.571777 913.609131 C 1084.371582 911.809326 1086.774292 908.812378 1089.168335 905.806885 C 1093.964966 899.210327 1096.970459 896.204834 1100.570313 893.810791 C 1103.567139 891.408081 1109.569458 891.408081 1112.574951 894.413574 L 1113.771973 895.610596 C 1116.768921 899.201782 1117.965942 901.001587 1116.768921 903.404297 Z"/>
                <path id="path17" fill="#000000" stroke="none" d="M 1119.171509 970.610107 C 1115.571899 970.007324 1110.172363 968.810303 1107.769653 964.607788 C 1102.973022 959.208252 1098.770386 953.205811 1095.170654 946.600586 C 1093.973633 944.800781 1093.37085 943.000977 1093.37085 940.00415 L 1093.37085 923.202637 C 1092.173828 903.998413 1097.573364 885.397095 1103.567139 866.795776 C 1104.170044 863.798828 1105.969849 860.793335 1108.966675 857.796509 C 1113.169189 851.794189 1124.5625 852.999756 1128.170898 858.399414 C 1129.367798 860.199219 1129.970703 863.196045 1129.970703 865.004639 L 1129.970703 865.607422 L 1120.971436 904.609985 C 1118.568848 913.609131 1117.974487 923.813965 1119.171509 937.609985 C 1119.774414 945.412231 1123.374146 949.606201 1129.367798 952.008789 L 1133.570313 953.808594 C 1134.767334 954.411499 1135.973022 955.005615 1136.567261 955.005615 C 1138.367188 956.202759 1140.166992 956.202759 1142.569702 955.608521 C 1150.966064 954.411499 1157.571289 950.208984 1164.770752 944.809448 C 1172.572876 938.807129 1179.772339 933.407471 1185.774658 925.605225 C 1188.177368 921.402832 1191.174194 918.405884 1193.576904 916.003174 C 1196.57373 911.800659 1200.182129 908.200928 1204.376099 900.407349 C 1206.778687 894.404907 1210.378418 893.207886 1216.37207 890.202393 C 1219.971924 888.402588 1227.774048 892.002319 1228.376953 896.799072 C 1228.376953 900.398804 1228.376953 901.001587 1226.577026 903.998413 L 1224.174438 910.595093 C 1223.571533 910.595093 1218.171997 918.397217 1218.171997 920.79126 C 1216.974976 921.988281 1214.572266 924.390991 1212.772461 926.793701 C 1208.569946 932.193237 1202.576172 939.392578 1194.773926 947.194824 C 1184.577759 956.796997 1177.972412 962.196533 1170.170166 966.399048 C 1152.765869 974.795532 1137.764282 976.595337 1123.365479 971.798584 C 1122.177002 971.204346 1120.971436 970.610107 1119.171509 970.610107 Z M 1128.179565 771.98938 C 1127.57666 766.589722 1128.782227 763.592896 1133.578979 759.993164 L 1139.581421 756.393433 L 1143.18103 753.990723 C 1149.183472 750.993774 1158.785522 755.790649 1159.379761 762.387085 C 1160.576782 773.186279 1150.983398 782.78833 1140.175537 782.194092 C 1134.776001 781.591309 1128.773682 777.397461 1128.179565 771.98938 Z"/>
                <path id="path18" fill="#000000" stroke="none" d="M 1393.997681 905.204102 C 1392.791992 906.401123 1391.594971 908.200928 1390.397949 910.000732 C 1388.598022 914.203247 1386.789673 916.003174 1383.801392 918.397217 C 1373.596558 926.793701 1366.397095 932.796143 1360.997559 935.801636 C 1353.798096 941.201172 1345.401733 943.60376 1336.402344 946.600586 C 1320.203735 949.597534 1300.396851 946.600586 1290.794678 941.803955 C 1285.997925 938.807129 1278.798584 938.807129 1273.993286 932.804688 C 1273.993286 933.407471 1272.796143 934.604492 1272.193359 935.207275 C 1269.196533 940.00415 1271.590576 936.404419 1267.990845 941.209717 L 1264.391113 945.412231 C 1261.988403 949.011963 1260.188599 951.414673 1254.789063 954.411499 C 1250.586548 957.408325 1246.392578 960.413818 1242.784302 963.410767 L 1234.387939 970.007324 C 1226.585571 976.604004 1217.586426 977.80957 1207.381592 974.209839 C 1199.579224 971.213013 1196.582397 966.407593 1199.579224 959.208252 C 1201.981934 953.205811 1201.37915 949.011963 1201.37915 943.612427 C 1200.776245 938.815674 1200.776245 933.407471 1202.576172 927.405151 C 1204.978882 923.80542 1204.978882 919.602905 1204.978882 914.806152 C 1205.581665 903.404297 1206.175903 893.199341 1208.578613 882.400269 L 1208.578613 881.203247 C 1207.975708 875.803589 1209.775635 870.404175 1210.981201 866.201538 C 1212.178223 862.601929 1213.375244 859.60498 1213.375244 856.005249 C 1213.375244 854.808228 1215.777954 846.403198 1225.974243 846.403198 C 1228.376953 846.403198 1230.779541 848.203125 1233.776489 850.605713 L 1235.576294 852.405518 C 1237.979004 853.602661 1238.573242 856.608154 1237.979004 862.00769 L 1237.979004 865.004639 C 1237.979004 875.200806 1236.179077 881.203247 1234.379272 887.205566 C 1232.579468 892.605103 1230.779541 898.004761 1230.176758 906.40979 L 1228.376953 916.614624 C 1227.774048 920.214355 1226.577026 923.813965 1226.577026 927.413818 L 1226.577026 934.018921 C 1227.179932 937.618652 1227.179932 939.418457 1227.179932 943.620972 L 1227.179932 947.220703 L 1227.179932 947.823486 C 1227.782715 947.823486 1228.376953 947.220703 1228.376953 947.220703 C 1234.973389 939.418457 1240.381592 934.018921 1246.384033 928.016602 C 1249.380981 925.019653 1252.377808 922.01416 1255.986084 917.811646 C 1257.786011 916.614624 1258.98291 914.211914 1260.188599 912.412109 C 1260.791504 910.612305 1261.38562 909.415283 1262.591309 908.209595 C 1263.194092 907.012573 1262.591309 907.012573 1262.591309 905.212769 C 1261.988403 903.412842 1261.38562 901.010132 1261.38562 899.81311 C 1261.38562 897.4104 1260.782837 895.016479 1260.782837 892.010986 C 1259.585815 885.414307 1258.380127 877.612061 1260.782837 866.812988 C 1261.38562 863.81604 1261.979858 861.413452 1261.979858 859.010742 C 1262.582642 854.214111 1263.779785 852.414185 1269.782104 843.406372 C 1276.981445 832.004395 1290.18335 826.002075 1303.38501 827.80188 C 1309.387451 829.601685 1313.589966 832.598511 1314.192871 837.403931 C 1314.192871 838.600952 1314.192871 839.203857 1314.795654 839.806641 C 1315.398315 844.603394 1316.595459 848.805908 1317.198242 853.008423 C 1318.395264 857.210938 1317.801025 859.010742 1316.595459 862.00769 C 1314.201294 875.209351 1298.596924 898.013306 1287.797852 914.211914 C 1285.997925 917.20874 1292.594482 922.616943 1299.199829 923.211304 C 1300.396851 923.211304 1301.602417 923.813965 1303.402344 924.408325 C 1309.404663 926.20813 1318.403809 929.204956 1329.805786 925.605225 C 1340.002197 926.20813 1350.801147 917.803101 1360.40332 911.206421 C 1362.203247 909.406616 1365.20874 906.40979 1367.602661 903.404297 C 1371.805176 898.004761 1373.605103 895.602051 1376.601929 893.802124 C 1382.60437 888.996826 1388.606689 888.996826 1393.403442 893.802124 C 1394.600464 898.598877 1395.797485 903.404297 1393.997681 905.204102 Z M 1293.188843 861.999146 C 1293.791626 860.199219 1293.791626 859.596436 1293.791626 859.002197 C 1293.791626 857.202271 1294.394409 856.005249 1294.997192 854.205444 C 1295.599976 853.602661 1293.791626 851.802734 1292.000366 852.405518 C 1290.794678 852.405518 1287.797852 853.602661 1287.797852 854.205444 C 1287.194946 856.005249 1285.997925 857.202271 1285.395142 857.805054 C 1282.992432 859.60498 1282.398315 860.802002 1282.398315 864.401733 C 1281.192627 867.39856 1280.598511 881.80603 1281.79541 887.205566 C 1282.992432 888.402588 1293.188843 865.004639 1293.188843 861.999146 Z"/>
                <path id="path19" fill="#000000" stroke="none" d="M 1537.417358 903.404297 C 1536.814453 904.00708 1536.220337 905.204102 1535.617554 907.003906 C 1534.411865 910.000732 1533.817627 911.800659 1532.009155 913.006348 C 1527.806641 919.008667 1524.207031 922.608398 1520.6073 926.20813 C 1517.610352 929.204956 1515.802002 931.004761 1513.407837 934.604492 C 1505.002808 943.60376 1497.803467 949.003296 1488.804077 953.205811 C 1484.601563 955.005615 1480.39917 956.202759 1478.005127 959.80249 C 1459.403809 971.204346 1448.001709 971.798584 1431.200317 973.598511 L 1426.997803 973.598511 C 1405.993774 974.795532 1382.595703 963.4021 1374.190674 946.592163 C 1368.188354 935.190063 1366.388428 927.990723 1368.188354 919.594238 L 1369.988159 907.5896 C 1370.591064 899.787231 1371.185181 891.390869 1374.784912 883.588623 C 1375.990479 881.185913 1377.1875 878.79187 1377.781738 876.389282 L 1380.778687 867.984253 C 1384.981201 858.984985 1390.380737 852.388306 1396.977295 846.385986 C 1405.976563 837.989502 1415.578613 834.381226 1425.783569 834.984009 C 1431.183105 834.984009 1435.38562 836.783936 1439.588135 840.986328 C 1448.587402 849.391479 1450.387207 855.393799 1445.581909 863.790161 C 1443.782104 867.992798 1441.982178 872.789551 1441.982178 876.389282 C 1440.182373 892.587891 1429.977417 901.587158 1418.584106 909.99231 C 1415.58728 912.394897 1411.987549 913.591919 1408.387817 915.391724 C 1406.588013 915.994629 1405.390869 916.588745 1403.58252 917.794434 L 1401.188354 918.397217 C 1392.189209 921.996948 1396.98584 922.599731 1396.98584 932.796143 L 1397.588745 936.395752 C 1399.38855 941.795288 1402.988281 945.997803 1410.187744 948.994751 C 1426.989258 956.796997 1432.991577 954.99707 1445.590576 948.994751 C 1447.390381 948.391968 1450.395874 947.797607 1452.798584 946.592163 C 1457.001099 944.792236 1459.395142 944.189453 1462.400635 942.99231 C 1464.200439 942.389526 1465.397461 942.389526 1467.197266 941.192505 C 1472.596924 936.98999 1477.393555 933.390259 1482.198975 930.393433 C 1490.001099 925.59668 1496.597778 921.394165 1503.805786 912.394897 L 1512.804932 900.99292 C 1514.604858 898.59021 1518.807495 894.396362 1521.804321 891.993774 C 1526.006836 888.996826 1531.406372 889.591064 1535.608887 893.190796 C 1538.61438 895.602051 1538.61438 899.201782 1537.417358 903.404297 Z M 1397.605957 897.401855 L 1397.605957 898.598877 C 1404.202515 896.799072 1410.204956 892.002319 1412.013428 886.602783 C 1413.210449 883.003052 1415.613037 880.006226 1417.412964 877.000732 C 1420.40979 873.401001 1422.209717 870.404175 1422.209717 866.201538 L 1422.209717 863.204712 C 1422.209717 859.002197 1421.012573 855.402344 1420.40979 856.005249 C 1419.204224 855.402344 1416.801514 857.202271 1415.010254 859.002197 C 1413.804565 859.60498 1413.804565 860.199219 1412.607544 860.802002 C 1409.610718 863.204712 1408.405029 866.804321 1406.011108 870.998291 C 1405.408203 872.195313 1405.408203 872.798218 1404.813965 873.401001 C 1401.817139 877.603516 1400.61145 883.003052 1400.008545 888.402588 C 1398.811523 892.605103 1398.811523 894.999268 1397.605957 897.401855 Z"/>
                <path id="path20" fill="#000000" stroke="none" d="M 1592.635742 960.405273 C 1584.833496 958.605469 1578.831177 954.402954 1575.834229 947.806274 C 1572.234497 939.40979 1568.031982 930.401978 1571.037598 920.799927 L 1578.839722 897.996094 L 1583.042236 893.199341 C 1586.039185 890.796631 1586.039185 890.202393 1585.444946 888.996826 C 1584.247925 887.196899 1582.44812 886.594116 1578.848389 885.397095 C 1577.651367 884.794312 1575.851563 884.794312 1574.645874 884.200073 C 1572.846069 883.003052 1571.649048 882.400269 1568.049194 879.394775 C 1562.046875 874.598022 1559.644165 873.392456 1557.853027 873.995239 C 1555.450317 875.795044 1552.453369 880.591797 1551.256348 885.397095 C 1545.254028 893.802124 1541.654297 899.201782 1535.651978 908.200928 C 1535.049194 908.803833 1534.446289 910.000732 1534.446289 910.603638 C 1532.052246 914.203247 1529.649536 917.803101 1524.844238 920.799927 C 1523.647217 921.402832 1521.244507 921.996948 1518.841797 921.996948 C 1512.848145 921.996948 1506.242798 914.797607 1509.239868 910.000732 C 1510.445435 907.598145 1511.642456 905.204102 1513.442383 902.801392 C 1516.439209 896.799072 1517.644897 893.802124 1520.641724 890.805298 C 1526.04126 884.802979 1529.046753 878.206299 1532.646484 870.998291 C 1535.049194 865.598755 1536.246216 863.196045 1538.648804 859.596436 C 1540.44873 856.599609 1540.44873 851.199951 1538.046021 843.991821 C 1536.246216 838.592407 1537.443237 833.795654 1541.042847 828.396118 C 1542.842651 826.596191 1544.642578 823.599365 1546.442505 820.593872 C 1547.639526 818.793945 1548.24231 818.191162 1548.845093 817.597046 C 1555.44165 809.794678 1563.84668 807.994873 1574.051636 811.000366 C 1581.853882 813.997314 1584.850708 821.799561 1580.054077 827.80188 C 1576.445679 832.004395 1573.457397 838.006714 1569.246338 846.403198 C 1568.049194 848.805908 1568.049194 851.802734 1569.849121 855.402344 C 1574.654419 863.204712 1585.453613 869.198364 1594.452881 871.601074 L 1605.854736 875.200806 C 1607.654541 876.397949 1609.454468 877.000732 1610.651489 877.603516 C 1614.251221 880.006226 1616.051025 885.405762 1613.648438 889.608276 L 1608.851563 897.4104 L 1603.452026 904.609985 C 1597.449707 912.412109 1595.649902 922.616943 1598.052612 932.813354 C 1599.852417 943.612427 1602.255127 946.015137 1611.254272 946.609253 C 1613.054077 946.609253 1615.456787 946.609253 1617.850952 947.212158 C 1624.447388 946.609253 1629.855591 946.015137 1637.055054 942.415283 C 1638.85498 940.012695 1642.45459 937.618652 1644.263062 937.015747 C 1649.059814 935.818848 1650.859619 934.018921 1653.262329 931.616333 C 1655.664917 929.816406 1657.464844 928.016602 1659.858887 926.819458 C 1665.861328 923.219849 1668.858154 919.017334 1671.260742 914.823486 C 1672.457764 912.420776 1674.25769 910.026611 1676.066162 908.21814 C 1677.263184 907.615479 1677.865967 907.021118 1679.062988 905.815552 C 1681.465698 901.018799 1686.271118 891.416748 1694.064697 892.010986 C 1697.664307 892.61377 1700.661255 895.610596 1702.469727 899.210327 C 1704.269653 902.207275 1701.866943 908.812378 1698.869995 912.412109 C 1698.267212 913.014893 1697.664307 914.814819 1697.07019 916.011841 C 1694.66748 919.61145 1694.073364 920.808594 1692.273438 922.616943 C 1691.067749 923.813965 1689.87085 924.41687 1688.070923 925.613892 C 1686.271118 927.413818 1685.67688 928.016602 1684.471191 931.013428 C 1683.27417 934.010254 1677.271851 940.012695 1673.069336 943.009644 C 1670.07251 945.412231 1666.472656 947.212158 1664.069946 948.40918 C 1659.264648 950.811768 1656.870605 952.008789 1653.873779 956.211304 C 1642.471802 963.410767 1636.469482 962.816528 1626.867432 963.410767 C 1613.631104 967.604614 1602.229248 967.010498 1592.635742 960.405273 Z"/>
            </g>
            <path id="path21" fill="none" stroke="#7c3b1a" stroke-width="77.371979" stroke-linecap="round" stroke-linejoin="round" d="M 2304.429443 1852.959229 L 1256.890381 2456.942627 L 209.351196 1852.959229 L 209.351196 644.983643 L 1256.890381 41 L 2304.429443 644.983643 Z"/>
        </g>
    </g>
</svg>
